<svg width="100" height="100" viewBox="0 0 100 100" fill="none" xmlns="http://www.w3.org/2000/svg">
  <rect width="100" height="100" rx="24" fill="#C9A96E"/>
  <path d="M30 25C30 22.2386 32.2386 20 35 20H65C67.7614 20 70 22.2386 70 25V35C70 37.7614 67.7614 40 65 40H35C32.2386 40 30 37.7614 30 35V25Z" fill="white"/>
  <path d="M20 45C20 42.2386 22.2386 40 25 40H55C57.7614 40 60 42.2386 60 45V55C60 57.7614 57.7614 60 55 60H25C22.2386 60 20 57.7614 20 55V45Z" fill="white" fill-opacity="0.6"/>
  <path d="M10 65C10 62.2386 12.2386 60 15 60H45C47.7614 60 50 62.2386 50 65V75C50 77.7614 47.7614 80 45 80H15C12.2386 80 10 77.7614 10 75V65Z" fill="white" fill-opacity="0.3"/>
</svg>
